<?xml version="1.0" standalone="no"?>
<!DOCTYPE svg PUBLIC "-//W3C//DTD SVG 20010904//EN"
 "http://www.w3.org/TR/2001/REC-SVG-20010904/DTD/svg10.dtd">
<svg version="1.0" xmlns="http://www.w3.org/2000/svg"
 width="240.000000pt" height="240.000000pt" viewBox="0 0 240.000000 240.000000"
 preserveAspectRatio="xMidYMid meet">

<g transform="translate(0.000000,240.000000) scale(0.100000,-0.100000)"
fill="#000000" stroke="none">
<path d="M0 1200 l0 -1200 1200 0 1200 0 0 1200 0 1200 -1200 0 -1200 0 0
-1200z m1234 627 c9 -14 7 -21 -8 -32 -17 -13 -17 -19 -6 -64 15 -63 49 -115
77 -119 15 -2 38 11 68 39 58 54 70 75 54 95 -18 22 14 53 39 38 27 -17 27
-43 -1 -53 -20 -8 -26 -19 -32 -59 -9 -64 5 -92 45 -92 35 0 98 51 96 78 0 11
6 17 18 17 29 0 31 -24 4 -34 -28 -10 -65 -57 -97 -118 l-21 -43 -269 0 -268
0 -12 27 c-23 49 -83 124 -108 134 -29 11 -26 33 5 37 17 3 22 -2 22 -21 0
-27 32 -61 73 -76 23 -9 31 -7 48 10 31 31 21 114 -18 145 -24 19 -26 24 -14
38 17 20 35 20 51 2 8 -10 9 -20 2 -33 -8 -13 -3 -27 21 -61 38 -52 89 -82
115 -66 24 15 49 61 63 115 11 41 11 49 -4 64 -20 20 -21 27 -5 43 17 17 48
11 62 -11z m-56 -834 c1 -238 -1 -433 -5 -433 -5 0 -32 31 -61 69 l-52 68 0
182 0 181 -110 0 -110 0 0 55 0 55 110 0 110 0 0 76 0 75 -52 -3 -53 -3 -3
-42 -3 -43 -55 0 -54 0 0 100 0 100 168 -2 167 -3 3 -432z m213 340 l54 -98 3
98 3 97 54 0 55 0 0 -227 -1 -228 -29 -34 c-16 -19 -31 -33 -33 -30 -2 2 -37
64 -78 138 l-74 133 -3 -242 -2 -243 -53 -69 c-28 -37 -55 -68 -59 -68 -10 0
-11 854 -1 863 3 4 30 7 58 7 l51 0 55 -97z"/>
</g>
</svg>
